<svg xmlns="http://www.w3.org/2000/svg" viewBox="0 0 128 128">
  <rect x="14" y="14" width="100" height="100" rx="16" fill="#7f4dd7" />
  <rect x="26" y="28" width="76" height="54" rx="10" fill="#f7f0ff" />
  <circle cx="48" cy="54" r="7" fill="#2b1f41" />
  <circle cx="80" cy="54" r="7" fill="#2b1f41" />
  <path d="M44 70c6 8 34 8 40 0" fill="none" stroke="#2b1f41" stroke-linecap="round" stroke-width="5" />
  <rect x="42" y="90" width="44" height="12" rx="6" fill="#d8bcff" />

  <rect x="2" y="34" width="12" height="10" rx="3" fill="#be97ff" />
  <rect x="2" y="50" width="12" height="10" rx="3" fill="#be97ff" />
  <rect x="2" y="66" width="12" height="10" rx="3" fill="#be97ff" />
  <rect x="2" y="82" width="12" height="10" rx="3" fill="#be97ff" />

  <rect x="114" y="34" width="12" height="10" rx="3" fill="#be97ff" />
  <rect x="114" y="50" width="12" height="10" rx="3" fill="#be97ff" />
  <rect x="114" y="66" width="12" height="10" rx="3" fill="#be97ff" />
  <rect x="114" y="82" width="12" height="10" rx="3" fill="#be97ff" />

  <rect x="34" y="2" width="10" height="12" rx="3" fill="#be97ff" />
  <rect x="50" y="2" width="10" height="12" rx="3" fill="#be97ff" />
  <rect x="66" y="2" width="10" height="12" rx="3" fill="#be97ff" />
  <rect x="82" y="2" width="10" height="12" rx="3" fill="#be97ff" />

  <rect x="34" y="114" width="10" height="12" rx="3" fill="#be97ff" />
  <rect x="50" y="114" width="10" height="12" rx="3" fill="#be97ff" />
  <rect x="66" y="114" width="10" height="12" rx="3" fill="#be97ff" />
  <rect x="82" y="114" width="10" height="12" rx="3" fill="#be97ff" />
</svg>
